<?xml version="1.0" standalone="no"?>
<!DOCTYPE svg PUBLIC "-//W3C//DTD SVG 20010904//EN"
 "http://www.w3.org/TR/2001/REC-SVG-20010904/DTD/svg10.dtd">
<svg version="1.0" xmlns="http://www.w3.org/2000/svg"
 width="100" height="98" viewBox="0 0 364.000000 390.000000"
 preserveAspectRatio="xMidYMid meet">

<g transform="translate(0.000000,390.000000) scale(0.100000,-0.100000)"
fill="#000000" stroke="none">
<path d="M642 3809 c-125 -16 -269 -111 -339 -225 -63 -103 -82 -272 -44 -393
44 -140 155 -254 304 -310 l27 -11 0 -855 c0 -806 -1 -856 -17 -861 -185 -62
-314 -208 -344 -392 -52 -312 231 -595 543 -543 260 43 444 292 401 543 -6 35
-10 64 -9 64 0 1 327 189 726 419 399 230 731 422 738 428 9 7 20 4 40 -11 97
-78 182 -113 294 -120 136 -8 250 33 352 129 175 163 203 413 69 617 -149 225
-485 272 -698 98 l-41 -34 -214 125 c-118 68 -450 259 -737 425 l-521 300 9
31 c13 47 11 165 -5 222 -63 237 -287 386 -534 354z m192 -263 c212 -124 126
-449 -119 -449 -181 -1 -299 189 -216 350 63 122 217 168 335 99z m978 -986
l717 -413 -7 -31 c-9 -39 -9 -162 0 -201 l6 -30 -546 -315 c-301 -173 -635
-366 -744 -429 l-198 -113 -37 32 c-36 32 -146 90 -170 90 -10 0 -13 179 -13
859 l0 859 49 17 c50 16 163 83 176 105 5 8 12 8 28 -2 12 -8 345 -200 739
-428z m1250 -312 c51 -15 126 -82 149 -133 10 -22 19 -63 19 -91 0 -89 -32
-154 -102 -204 -157 -114 -379 1 -378 196 1 165 155 279 312 232z m-2257
-1339 c121 -57 169 -200 111 -326 -42 -89 -131 -139 -236 -131 -239 17 -303
345 -89 452 68 33 149 35 214 5z"/>
</g>
</svg>
